# Blender 4.0.2
# www.blender.org
mtllib PlatformThin.mtl
o Cylinder.001
v 0.000000 -2.250000 -2.575739
v 0.000000 -1.750000 -2.575739
v 0.252466 -2.250000 -2.563336
v 0.252466 -1.750000 -2.563336
v 0.502502 -2.250000 -2.526247
v 0.502502 -1.750000 -2.526247
v 0.747697 -2.250000 -2.464828
v 0.747697 -1.750000 -2.464828
v 0.985693 -2.250000 -2.379673
v 0.985693 -1.750000 -2.379673
v 1.214195 -2.250000 -2.271599
v 1.214195 -1.750000 -2.271599
v 1.431004 -2.250000 -2.141649
v 1.431004 -1.750000 -2.141649
v 1.634032 -1.750000 -1.991073
v 1.821322 -2.250000 -1.821322
v 1.821322 -1.750000 -1.821322
v 1.991073 -2.250000 -1.634032
v 1.991073 -1.750000 -1.634032
v 2.141649 -2.250000 -1.431004
v 2.141649 -1.750000 -1.431004
v 2.271599 -2.250000 -1.214195
v 2.271599 -1.750000 -1.214195
v 2.379673 -2.250000 -0.985693
v 2.379673 -1.750000 -0.985693
v 2.464828 -2.250000 -0.747698
v 2.464828 -1.750000 -0.747698
v 2.526247 -2.250000 -0.502502
v 2.526247 -1.750000 -0.502502
v 2.563336 -2.250000 -0.252466
v 2.563336 -1.750000 -0.252466
v 2.575739 -2.250000 0.000000
v 2.575739 -1.750000 0.000000
v 0.294051 -1.750000 -2.985554
v 0.000000 -1.750000 -3.000000
v 0.585271 -1.750000 -2.942356
v 0.870854 -1.750000 -2.870821
v 1.148050 -1.750000 -2.771638
v 1.414190 -1.750000 -2.645764
v 1.666711 -1.750000 -2.494409
v 1.903180 -1.750000 -2.319031
v 2.121320 -1.750000 -2.121320
v 2.319031 -1.750000 -1.903180
v 2.494409 -1.750000 -1.666711
v 2.645764 -1.750000 -1.414190
v 2.771638 -1.750000 -1.148050
v 2.870821 -1.750000 -0.870854
v 2.942356 -1.750000 -0.585271
v 2.985554 -1.750000 -0.294051
v 3.000000 -1.750000 0.000000
v 0.000000 -2.250000 -3.000000
v 0.294051 -2.250000 -2.985554
v 0.585271 -2.250000 -2.942356
v 0.870854 -2.250000 -2.870821
v 1.148050 -2.250000 -2.771638
v 1.414190 -2.250000 -2.645764
v 1.666711 -2.250000 -2.494409
v 1.903180 -2.250000 -2.319031
v 2.121320 -2.250000 -2.121320
v 2.319031 -2.250000 -1.903180
v 2.494409 -2.250000 -1.666711
v 2.645764 -2.250000 -1.414190
v 2.771638 -2.250000 -1.148050
v 2.870821 -2.250000 -0.870854
v 2.942356 -2.250000 -0.585271
v 2.985554 -2.250000 -0.294051
v 3.000000 -2.250000 0.000000
v 1.634032 -2.248936 -1.991073
vn 0.0491 -0.0000 -0.9988
vn 0.1467 -0.0000 -0.9892
vn 0.2430 -0.0000 -0.9700
vn 0.3369 -0.0000 -0.9415
vn 0.4276 -0.0000 -0.9040
vn 0.5141 -0.0000 -0.8577
vn 0.5957 -0.0000 -0.8032
vn 0.6716 -0.0000 -0.7410
vn 0.7410 -0.0000 -0.6716
vn 0.8032 -0.0000 -0.5957
vn 0.8577 -0.0000 -0.5141
vn 0.9040 -0.0000 -0.4276
vn 0.9415 -0.0000 -0.3369
vn 0.9700 -0.0000 -0.2430
vn 0.9892 -0.0000 -0.1467
vn 0.9988 -0.0000 -0.0491
vn -0.0000 1.0000 -0.0000
vn -0.0000 -1.0000 -0.0000
vn 0.0008 -1.0000 0.0022
vn -0.0023 -1.0000 -0.0004
vn -0.0491 -0.0000 0.9988
vn -0.1467 -0.0000 0.9892
vn -0.2430 -0.0000 0.9700
vn -0.3369 -0.0000 0.9415
vn -0.4276 -0.0000 0.9040
vn -0.5141 -0.0000 0.8577
vn -0.5957 -0.0000 0.8032
vn -0.6716 -0.0000 0.7410
vn -0.7410 -0.0000 0.6716
vn -0.8032 -0.0000 0.5957
vn -0.8577 -0.0000 0.5141
vn -0.9040 -0.0000 0.4276
vn -0.9415 -0.0000 0.3369
vn -0.9700 -0.0000 0.2430
vn -0.9892 -0.0000 0.1467
vn -0.9988 -0.0000 0.0491
vn -0.0000 -0.0000 1.0000
vn -1.0000 -0.0000 -0.0000
vt 1.000000 0.500000
vt 1.000000 1.000000
vt 0.984375 1.000000
vt 0.984375 0.500000
vt 0.968750 1.000000
vt 0.968750 0.500000
vt 0.953125 1.000000
vt 0.953125 0.500000
vt 0.937500 1.000000
vt 0.937500 0.500000
vt 0.921875 1.000000
vt 0.921875 0.500000
vt 0.906250 1.000000
vt 0.906250 0.500000
vt 0.890625 1.000000
vt 0.890625 0.500000
vt 0.875000 1.000000
vt 0.875000 0.500000
vt 0.859375 1.000000
vt 0.859375 0.500000
vt 0.843750 1.000000
vt 0.843750 0.500000
vt 0.828125 1.000000
vt 0.828125 0.500000
vt 0.812500 1.000000
vt 0.812500 0.500000
vt 0.796875 1.000000
vt 0.796875 0.500000
vt 0.781250 1.000000
vt 0.781250 0.500000
vt 0.765625 1.000000
vt 0.765625 0.500000
vt 0.750000 1.000000
vt 0.750000 0.500000
vt 0.250000 0.456059
vt 0.270197 0.455067
vt 0.273524 0.488844
vt 0.250000 0.490000
vt 0.290200 0.452100
vt 0.296822 0.485388
vt 0.309816 0.447186
vt 0.319668 0.479666
vt 0.328855 0.440374
vt 0.341844 0.471731
vt 0.347136 0.431728
vt 0.363135 0.461661
vt 0.364480 0.421332
vt 0.383337 0.449553
vt 0.380723 0.409286
vt 0.402254 0.435522
vt 0.395706 0.395706
vt 0.419706 0.419706
vt 0.409286 0.380723
vt 0.435522 0.402254
vt 0.421332 0.364480
vt 0.449553 0.383337
vt 0.431728 0.347136
vt 0.461661 0.363135
vt 0.440374 0.328855
vt 0.471731 0.341844
vt 0.447186 0.309816
vt 0.479666 0.319668
vt 0.452100 0.290200
vt 0.485388 0.296822
vt 0.455067 0.270197
vt 0.488844 0.273524
vt 0.456059 0.250000
vt 0.490000 0.250000
vt 0.770197 0.455067
vt 0.750000 0.456059
vt 0.750000 0.490000
vt 0.773524 0.488844
vt 0.790200 0.452100
vt 0.796822 0.485388
vt 0.809816 0.447186
vt 0.819668 0.479666
vt 0.828855 0.440374
vt 0.841844 0.471731
vt 0.847136 0.431728
vt 0.863135 0.461661
vt 0.864480 0.421332
vt 0.883337 0.449553
vt 0.880723 0.409286
vt 0.902254 0.435522
vt 0.895706 0.395706
vt 0.919706 0.419706
vt 0.909286 0.380723
vt 0.935522 0.402254
vt 0.921332 0.364480
vt 0.949553 0.383337
vt 0.931728 0.347136
vt 0.961661 0.363135
vt 0.940374 0.328855
vt 0.971731 0.341844
vt 0.947186 0.309816
vt 0.979666 0.319668
vt 0.952100 0.290200
vt 0.985388 0.296822
vt 0.955067 0.270197
vt 0.988844 0.273524
vt 0.956059 0.250000
vt 0.990000 0.250000
vt 0.290200 0.452100
vt 0.380723 0.409286
vt 0.409286 0.380723
vt 0.447186 0.309816
vt 0.452100 0.290200
s 0
f 51/1/1 35/2/1 34/3/1 52/4/1
f 52/4/2 34/3/2 36/5/2 53/6/2
f 53/6/3 36/5/3 37/7/3 54/8/3
f 54/8/4 37/7/4 38/9/4 55/10/4
f 55/10/5 38/9/5 39/11/5 56/12/5
f 56/12/6 39/11/6 40/13/6 57/14/6
f 57/14/7 40/13/7 41/15/7 58/16/7
f 58/16/8 41/15/8 42/17/8 59/18/8
f 59/18/9 42/17/9 43/19/9 60/20/9
f 60/20/10 43/19/10 44/21/10 61/22/10
f 61/22/11 44/21/11 45/23/11 62/24/11
f 62/24/12 45/23/12 46/25/12 63/26/12
f 63/26/13 46/25/13 47/27/13 64/28/13
f 64/28/14 47/27/14 48/29/14 65/30/14
f 65/30/15 48/29/15 49/31/15 66/32/15
f 66/32/16 49/31/16 50/33/16 67/34/16
f 2/35/17 4/36/17 34/37/17 35/38/17
f 4/36/17 6/39/17 36/40/17 34/37/17
f 6/39/17 8/41/17 37/42/17 36/40/17
f 8/41/17 10/43/17 38/44/17 37/42/17
f 10/43/17 12/45/17 39/46/17 38/44/17
f 12/45/17 14/47/17 40/48/17 39/46/17
f 14/47/17 15/49/17 41/50/17 40/48/17
f 15/49/17 17/51/17 42/52/17 41/50/17
f 17/51/17 19/53/17 43/54/17 42/52/17
f 19/53/17 21/55/17 44/56/17 43/54/17
f 21/55/17 23/57/17 45/58/17 44/56/17
f 23/57/17 25/59/17 46/60/17 45/58/17
f 25/59/17 27/61/17 47/62/17 46/60/17
f 27/61/17 29/63/17 48/64/17 47/62/17
f 29/63/17 31/65/17 49/66/17 48/64/17
f 31/65/17 33/67/17 50/68/17 49/66/17
f 3/69/18 1/70/18 51/71/18 52/72/18
f 5/73/18 3/69/18 52/72/18 53/74/18
f 7/75/18 5/73/18 53/74/18 54/76/18
f 9/77/18 7/75/18 54/76/18 55/78/18
f 11/79/18 9/77/18 55/78/18 56/80/18
f 13/81/18 11/79/18 56/80/18 57/82/18
f 68/83/19 13/81/19 57/82/19 58/84/19
f 16/85/20 68/83/20 58/84/20 59/86/20
f 18/87/18 16/85/18 59/86/18 60/88/18
f 20/89/18 18/87/18 60/88/18 61/90/18
f 22/91/18 20/89/18 61/90/18 62/92/18
f 24/93/18 22/91/18 62/92/18 63/94/18
f 26/95/18 24/93/18 63/94/18 64/96/18
f 28/97/18 26/95/18 64/96/18 65/98/18
f 30/99/18 28/97/18 65/98/18 66/100/18
f 32/101/18 30/99/18 66/100/18 67/102/18
f 4/36/21 2/35/21 1/35/21 3/36/21
f 6/39/22 4/36/22 3/36/22 5/103/22
f 8/41/23 6/39/23 5/103/23 7/41/23
f 10/43/24 8/41/24 7/41/24 9/43/24
f 12/45/25 10/43/25 9/43/25 11/45/25
f 14/47/26 12/45/26 11/45/26 13/47/26
f 15/49/27 14/47/27 13/47/27 68/104/27
f 17/51/28 15/49/28 68/104/28 16/51/28
f 19/53/29 17/51/29 16/51/29 18/105/29
f 21/55/30 19/53/30 18/105/30 20/55/30
f 23/57/31 21/55/31 20/55/31 22/57/31
f 25/59/32 23/57/32 22/57/32 24/59/32
f 27/61/33 25/59/33 24/59/33 26/106/33
f 29/63/34 27/61/34 26/106/34 28/107/34
f 31/65/35 29/63/35 28/107/35 30/65/35
f 33/67/36 31/65/36 30/65/36 32/67/36
f 50/68/37 33/67/37 32/67/37 67/102/37
f 51/71/38 1/70/38 2/35/38 35/38/38
