# Blender 3.6.0
# www.blender.org
mtllib QuarterCircle.mtl
o Cylinder
v 0.000000 0.009917 -1.000000
v 0.000000 -0.074361 -1.000000
v 0.110008 0.009917 -0.993931
v 0.110008 -0.074361 -0.993931
v 0.218681 0.009917 -0.975796
v 0.218681 -0.074361 -0.975796
v 0.324699 0.009917 -0.945817
v 0.324699 -0.074361 -0.945817
v 0.426776 0.009917 -0.904357
v 0.426776 -0.074361 -0.904357
v 0.523673 0.009917 -0.851919
v 0.523673 -0.074361 -0.851919
v 0.614213 0.009917 -0.789140
v 0.614213 -0.074361 -0.789140
v 0.697297 0.009917 -0.716783
v 0.697297 -0.074361 -0.716783
v 0.771917 0.009917 -0.635724
v 0.771917 -0.074361 -0.635724
v 0.837166 0.009917 -0.546948
v 0.837166 -0.074361 -0.546948
v 0.892254 0.009917 -0.451533
v 0.892254 -0.074361 -0.451533
v 0.936511 0.009917 -0.350638
v 0.936511 -0.074361 -0.350638
v 0.969400 0.009917 -0.245485
v 0.969400 -0.074361 -0.245485
v 0.990522 0.009917 -0.137354
v 0.990522 -0.074361 -0.137354
v 0.999620 0.009917 -0.027554
v 0.999620 -0.074361 -0.027554
v 0.000000 -0.074361 -0.600000
v 0.066005 -0.074361 -0.596358
v 0.131209 -0.074361 -0.585478
v 0.194820 -0.074361 -0.567490
v 0.256066 -0.074361 -0.542614
v 0.368528 -0.074361 -0.473484
v 0.418378 -0.074361 -0.430070
v 0.314204 -0.074361 -0.511152
v 0.502300 -0.074361 -0.328169
v 0.463150 -0.074361 -0.381434
v 0.561907 -0.074361 -0.210383
v 0.599772 -0.074361 -0.016533
v 0.594313 -0.074361 -0.082412
v 0.581640 -0.074361 -0.147291
v 0.535353 -0.074361 -0.270920
v 0.000000 0.009917 -0.600000
v 0.131209 0.009917 -0.585478
v 0.194820 0.009917 -0.567490
v 0.256066 0.009917 -0.542614
v 0.066005 0.009917 -0.596358
v 0.314204 0.009917 -0.511152
v 0.368528 0.009917 -0.473484
v 0.463150 0.009917 -0.381434
v 0.502300 0.009917 -0.328169
v 0.418378 0.009917 -0.430070
v 0.561907 0.009917 -0.210383
v 0.581640 0.009917 -0.147291
v 0.599772 0.009917 -0.016533
v 0.594313 0.009917 -0.082412
v 0.535353 0.009917 -0.270920
v 0.998861 -0.074361 0.000000
v 0.998861 0.009917 0.000000
v 0.599316 -0.074361 0.000000
v 0.599316 0.009917 0.000000
vn 0.0551 -0.0000 -0.9985
vn 0.1646 -0.0000 -0.9864
vn 0.2721 -0.0000 -0.9623
vn 0.3763 -0.0000 -0.9265
vn 0.4759 -0.0000 -0.8795
vn 0.5698 -0.0000 -0.8218
vn 0.6568 -0.0000 -0.7541
vn 0.7357 -0.0000 -0.6773
vn 0.8058 -0.0000 -0.5922
vn 0.8660 -0.0000 -0.5000
vn 0.9158 -0.0000 -0.4017
vn 0.9544 -0.0000 -0.2985
vn 0.9815 -0.0000 -0.1917
vn 0.9966 -0.0000 -0.0826
vn 0.9996 -0.0000 0.0276
vn -0.0000 -1.0000 -0.0000
vn -0.0000 1.0000 -0.0000
vn -0.0551 -0.0000 0.9985
vn -0.1646 -0.0000 0.9864
vn -0.2721 -0.0000 0.9623
vn -0.3763 -0.0000 0.9265
vn -0.4759 -0.0000 0.8795
vn -0.5698 -0.0000 0.8218
vn -0.6568 -0.0000 0.7541
vn -0.7357 -0.0000 0.6773
vn -0.8058 -0.0000 0.5922
vn -0.8660 -0.0000 0.5000
vn -0.9158 -0.0000 0.4017
vn -0.9544 -0.0000 0.2985
vn -0.9815 -0.0000 0.1917
vn -0.9966 -0.0000 0.0826
vn -0.9996 -0.0000 -0.0276
vn -1.0000 -0.0000 -0.0000
vn -0.0000 -0.0000 1.0000
vt 0.982456 1.000000
vt 0.982456 0.500000
vt 1.000000 0.500000
vt 1.000000 1.000000
vt 0.964912 1.000000
vt 0.964912 0.500000
vt 0.947368 1.000000
vt 0.947368 0.500000
vt 0.929825 1.000000
vt 0.929825 0.500000
vt 0.912281 1.000000
vt 0.912281 0.500000
vt 0.894737 1.000000
vt 0.894737 0.500000
vt 0.877193 1.000000
vt 0.877193 0.500000
vt 0.859649 1.000000
vt 0.859649 0.500000
vt 0.842105 1.000000
vt 0.842105 0.500000
vt 0.824561 1.000000
vt 0.824561 0.500000
vt 0.807018 1.000000
vt 0.807018 0.500000
vt 0.789474 1.000000
vt 0.789474 0.500000
vt 0.771930 1.000000
vt 0.771930 0.500000
vt 0.754386 1.000000
vt 0.754386 0.500000
vt 0.749997 1.000000
vt 0.749997 0.500000
vt 0.489727 0.250000
vt 0.489909 0.256613
vt 0.487725 0.282965
vt 0.482656 0.308917
vt 0.474763 0.334153
vt 0.464141 0.358368
vt 0.450920 0.381268
vt 0.435260 0.402574
vt 0.417351 0.422028
vt 0.397411 0.439394
vt 0.375682 0.454461
vt 0.352426 0.467046
vt 0.327928 0.476996
vt 0.302483 0.484191
vt 0.276402 0.488543
vt 0.250000 0.490000
vt 0.250000 0.394000
vt 0.265841 0.393126
vt 0.281490 0.390515
vt 0.296757 0.386198
vt 0.311456 0.380227
vt 0.325409 0.372676
vt 0.338447 0.363636
vt 0.350411 0.353217
vt 0.361156 0.341544
vt 0.370552 0.328761
vt 0.378485 0.315021
vt 0.384858 0.300492
vt 0.389594 0.285350
vt 0.392635 0.269779
vt 0.393945 0.253968
vt 0.393836 0.250000
vt 0.893836 0.250000
vt 0.893945 0.253968
vt 0.892635 0.269779
vt 0.889593 0.285350
vt 0.884858 0.300492
vt 0.878485 0.315021
vt 0.870552 0.328761
vt 0.861156 0.341544
vt 0.850411 0.353217
vt 0.838447 0.363636
vt 0.825409 0.372676
vt 0.811456 0.380227
vt 0.796757 0.386198
vt 0.781490 0.390515
vt 0.765841 0.393126
vt 0.750000 0.394000
vt 0.750000 0.490000
vt 0.776402 0.488543
vt 0.802483 0.484191
vt 0.827928 0.476996
vt 0.852426 0.467046
vt 0.875682 0.454461
vt 0.897411 0.439394
vt 0.917351 0.422028
vt 0.935260 0.402574
vt 0.950920 0.381268
vt 0.964141 0.358368
vt 0.974763 0.334153
vt 0.982656 0.308917
vt 0.987725 0.282965
vt 0.989909 0.256613
vt 0.989727 0.250000
vt 0.982456 0.812405
vt 0.982456 0.828823
vt 1.000000 0.828823
vt 1.000000 0.812405
vt 0.964912 0.812405
vt 0.964912 0.828823
vt 0.947368 0.812405
vt 0.947368 0.828823
vt 0.929825 0.812405
vt 0.929825 0.828823
vt 0.912281 0.812405
vt 0.912281 0.828823
vt 0.894737 0.812405
vt 0.894737 0.828823
vt 0.877193 0.812405
vt 0.877193 0.828823
vt 0.859649 0.828823
vt 0.859649 0.812405
vt 0.842105 0.828823
vt 0.842105 0.812405
vt 0.824561 0.828823
vt 0.824561 0.812405
vt 0.807018 0.828823
vt 0.807018 0.812405
vt 0.789474 0.828823
vt 0.789474 0.812405
vt 0.771930 0.828823
vt 0.771930 0.812405
vt 0.754386 0.828823
vt 0.754386 0.812405
vt 0.749997 0.812405
vt 0.749997 0.828823
vt 0.501240 0.075000
vt 0.490705 0.075000
vt 0.490705 0.125000
vt 0.501240 0.125000
vt 0.501240 0.875142
vt 0.490705 0.875142
vt 0.490705 0.925085
vt 0.501240 0.925085
s 0
f 4/1/1 2/4/1 1/3/1 3/2/1
f 3/2/2 5/6/2 6/5/2 4/1/2
f 5/6/3 7/8/3 8/7/3 6/5/3
f 7/8/4 9/10/4 10/9/4 8/7/4
f 9/10/5 11/12/5 12/11/5 10/9/5
f 11/12/6 13/14/6 14/13/6 12/11/6
f 13/14/7 15/16/7 16/15/7 14/13/7
f 15/16/8 17/18/8 18/17/8 16/15/8
f 17/18/9 19/20/9 20/19/9 18/17/9
f 19/20/10 21/22/10 22/21/10 20/19/10
f 21/22/11 23/24/11 24/23/11 22/21/11
f 23/24/12 25/26/12 26/25/12 24/23/12
f 25/26/13 27/28/13 28/27/13 26/25/13
f 27/28/14 29/30/14 30/29/14 28/27/14
f 29/30/15 62/32/15 61/31/15 30/29/15
f 61/33/16 63/64/16 42/63/16 43/62/16 44/61/16 41/60/16 45/59/16 39/58/16 40/57/16 37/56/16 36/55/16 38/54/16 35/53/16 34/52/16 33/51/16 32/50/16 31/49/16 2/48/16 4/47/16 6/46/16 8/45/16 10/44/16 12/43/16 14/42/16 16/41/16 18/40/16 20/39/16 22/38/16 24/37/16 26/36/16 28/35/16 30/34/16
f 64/65/17 62/96/17 29/95/17 27/94/17 25/93/17 23/92/17 21/91/17 19/90/17 17/89/17 15/88/17 13/87/17 11/86/17 9/85/17 7/84/17 5/83/17 3/82/17 1/81/17 46/80/17 50/79/17 47/78/17 48/77/17 49/76/17 51/75/17 52/74/17 55/73/17 53/72/17 54/71/17 60/70/17 56/69/17 57/68/17 59/67/17 58/66/17
f 50/97/18 46/100/18 31/99/18 32/98/18
f 47/101/19 50/97/19 32/98/19 33/102/19
f 48/103/20 47/101/20 33/102/20 34/104/20
f 49/105/21 48/103/21 34/104/21 35/106/21
f 51/107/22 49/105/22 35/106/22 38/108/22
f 52/109/23 51/107/23 38/108/23 36/110/23
f 55/111/24 52/109/24 36/110/24 37/112/24
f 40/113/25 53/114/25 55/111/25 37/112/25
f 39/115/26 54/116/26 53/114/26 40/113/26
f 45/117/27 60/118/27 54/116/27 39/115/27
f 41/119/28 56/120/28 60/118/28 45/117/28
f 44/121/29 57/122/29 56/120/29 41/119/29
f 43/123/30 59/124/30 57/122/30 44/121/30
f 42/125/31 58/126/31 59/124/31 43/123/31
f 42/125/32 63/128/32 64/127/32 58/126/32
f 46/129/33 1/132/33 2/131/33 31/130/33
f 62/133/34 64/136/34 63/135/34 61/134/34
